<svg width="20" height="20" viewBox="0 0 20 20" fill="none" xmlns="http://www.w3.org/2000/svg">
<g clip-path="url(#clip0_1_2418)">
<path d="M10 0C4.47778 0.0222222 0 4.48889 0 10C0 11.9778 0.58649 13.9112 1.6853 15.5557C2.78412 17.2002 4.3459 18.4819 6.17317 19.2388C8.00043 19.9957 10.0111 20.1937 11.9509 19.8079C13.8907 19.422 15.6725 18.4696 17.0711 17.0711C18.4696 15.6725 19.422 13.8907 19.8079 11.9509C20.1937 10.0111 19.9957 8.00043 19.2388 6.17317C18.4819 4.3459 17.2002 2.78412 15.5557 1.6853C13.9112 0.58649 11.9778 0 10 0V0ZM10.4111 13.5778V10.4222H14.4111C14.3889 11.7333 14.2333 12.9778 13.9444 14.1556C12.7937 13.8236 11.6076 13.6297 10.4111 13.5778ZM12.5222 18.8C13.4615 17.7731 14.1466 16.54 14.5222 15.2C15.6111 15.5667 16.4111 15.9556 16.7778 16.1667C15.6358 17.4304 14.161 18.3468 12.5222 18.8111V18.8ZM10.4111 19.1222V14.4C11.5 14.4667 12.6111 14.6444 13.7111 14.9556C12.9778 17.3111 11.7444 18.8444 10.4111 19.1222ZM14.4556 4.65556C14.073 3.37224 13.413 2.18874 12.5222 1.18889C14.0778 1.63333 15.5 2.47778 16.6333 3.66667C15.9333 4.07778 15.2111 4.41111 14.4556 4.66667V4.65556ZM14.4111 9.57778H10.4111V6.2C11.6 6.17778 12.7667 6.03333 13.9 5.7C14.2111 6.92222 14.3778 8.22222 14.4111 9.58889V9.57778ZM10.4111 5.35556V0.877778C11.7 1.14444 12.9111 2.62222 13.6556 4.9C12.6333 5.18889 11.5222 5.34444 10.4111 5.34444V5.35556ZM19.1556 10.4222C19.0755 12.2635 18.4403 14.0375 17.3333 15.5111C16.9778 15.3 16.0556 14.8333 14.7444 14.3778C15.0556 13.1556 15.2111 11.8222 15.2556 10.4222H19.1556ZM19.1556 9.57778H15.2667C15.2548 8.18952 15.0682 6.80828 14.7111 5.46667C15.5444 5.16667 16.3778 4.77778 17.1889 4.33333C18.4 5.84444 19.0778 7.65555 19.1556 9.57778ZM5.23333 14.3C4.34444 14.6 3.48889 15.0111 2.67778 15.5111C1.56289 14.0402 0.919826 12.2659 0.833333 10.4222H4.72222C4.77778 11.8 4.94444 13.0889 5.22222 14.3H5.23333ZM0.844444 9.57778C0.921582 7.65741 1.61069 5.81202 2.81111 4.31111C3.25556 4.55556 4.12222 4.97778 5.32222 5.37778C4.96414 6.75754 4.77021 8.17476 4.74444 9.6H0.844444V9.57778ZM5.46667 15.1222C5.82488 16.4956 6.51121 17.7615 7.46667 18.8111C5.83192 18.345 4.36116 17.4286 3.22222 16.1667C3.94444 15.7333 4.7 15.3889 5.46667 15.1222ZM5.57778 10.4222H9.58889V13.5556C8.37778 13.5778 7.18889 13.7444 6.03333 14.0556C5.75527 12.8639 5.60627 11.6458 5.58889 10.4222H5.57778ZM9.58889 14.3778V19.1222C8.23333 18.8556 7 17.2667 6.25556 14.8556C7.33333 14.5667 8.44444 14.4 9.58889 14.3778ZM9.58889 6.17778V9.57778H5.58889C5.61111 8.18889 5.81111 6.83333 6.12222 5.6C7.26667 5.93333 8.44444 6.11111 9.58889 6.17778ZM3.38889 3.66667C4.50858 2.50067 5.92064 1.6565 7.47778 1.22222C6.7 2.02222 6.03333 3.16667 5.56667 4.61111C4.81896 4.3535 4.09109 4.04156 3.38889 3.67778V3.66667ZM9.58889 0.888889V5.33333C8.52222 5.26667 7.43333 5.11111 6.36667 4.8C7.1 2.6 8.3 1.14444 9.58889 0.877778V0.888889Z" fill="white"/>
</g>
<defs>
<clipPath id="clip0_1_2418">
<rect width="20" height="20" fill="white"/>
</clipPath>
</defs>
</svg>
