<svg width="250" height="37" viewBox="0 0 250 37" fill="none" xmlns="http://www.w3.org/2000/svg">
<path d="M11.5456 19.1045C11.1498 19.0923 10.753 19.1088 10.3636 19.1538C9.7138 19.2185 9.09139 19.3622 8.53262 19.5767C7.97384 19.7912 7.48986 20.072 7.10888 20.403C6.72789 20.734 6.45753 21.1084 6.31353 21.5044C6.16953 21.9004 6.15479 22.3102 6.27015 22.7098C6.55333 24.3577 9.40243 25.7474 12.0399 25.7887C12.3106 25.793 12.5814 25.7819 12.8488 25.7556C15.7029 25.4707 16.4501 23.657 15.9797 21.8756C15.4483 19.8641 13.1235 19.155 11.5456 19.1045ZM14.3421 23.8701C14.2217 23.9813 14.0544 24.0703 13.8583 24.1275C13.6622 24.1846 13.4446 24.2078 13.2287 24.1946C12.8493 24.1761 12.4954 24.0693 12.2389 23.896C11.9823 23.7226 11.8422 23.4955 11.8469 23.2608C11.8403 22.9481 11.9381 22.6378 12.1342 22.3493C12.2567 22.1661 12.2684 21.9618 12.1674 21.7737C12.0663 21.5855 11.8592 21.4259 11.5835 21.324C11.2448 21.1945 10.8385 21.1501 10.4483 21.2C10.0704 21.2448 9.73645 21.3798 9.5192 21.5757C9.37255 21.7219 9.25806 21.8794 9.17875 22.0442C9.16329 22.0731 9.15102 22.0957 9.1417 22.1105C9.01238 22.3138 8.80602 22.3733 8.66648 22.3623C8.61509 22.3564 8.5675 22.3416 8.52937 22.3196C8.49125 22.2976 8.46421 22.2693 8.45148 22.238C8.3791 21.9665 8.41301 21.6883 8.55039 21.4265C8.68777 21.1648 8.92464 20.927 9.24125 20.7332C9.51698 20.5635 9.85189 20.4348 10.2205 20.357C10.589 20.2793 10.9815 20.2544 11.3681 20.2843C11.774 20.3144 12.1619 20.4049 12.4984 20.5481C12.8348 20.6913 13.1097 20.8829 13.2992 21.1063C13.4816 21.3751 13.5553 21.6672 13.5142 21.9575C13.473 22.2478 13.3181 22.5276 13.0628 22.7728C13.0306 22.8153 13.001 22.8541 12.9758 22.8888C12.884 22.9849 12.8333 23.0938 12.8285 23.2053C12.8238 23.3167 12.8651 23.4271 12.9485 23.5261C13.022 23.5864 13.1178 23.6349 13.2281 23.6677C13.3383 23.7004 13.4597 23.7163 13.5819 23.714C13.6987 23.7131 13.8148 23.7035 13.9278 23.6855C14.0744 23.6656 14.226 23.645 14.3183 23.7127C14.3489 23.7339 14.3677 23.7607 14.372 23.789C14.3763 23.8173 14.3658 23.8457 14.3421 23.8701V23.8701Z" fill="white"/>
<path d="M48.018 27.2495C48.6134 26.3177 48.9577 25.3321 49.0371 24.3317C49.0371 23.1018 47.9079 22.592 47.1888 22.592C47.1668 22.5445 47.0246 22.2238 46.8287 21.8377C46.7167 21.6138 46.5838 21.3941 46.4306 21.1797C47.0191 20.6784 47.2681 20.0555 47.125 19.443C47.0073 18.9707 46.6431 18.5349 46.0877 18.2017C45.0334 17.6498 43.7754 17.2661 42.4243 17.0844C42.2207 17.0493 41.5498 16.9359 41.4909 16.9248C41.4862 16.9011 41.4419 15.5699 41.4014 14.9984C41.384 14.4253 41.2455 13.8561 40.9894 13.3051C40.6711 12.5144 40.0132 11.7912 39.0848 11.2115C41.4093 9.72777 42.8603 8.09336 42.8568 6.69124C42.8502 3.99475 37.4724 3.17877 30.8452 4.86868C30.838 4.87058 29.4508 5.23268 29.441 5.23579C29.4348 5.232 26.9024 3.7021 26.8644 3.68152C19.3085 -0.376783 -4.3161 15.7932 3.23717 19.7205L4.88786 20.5815C4.44242 21.3176 4.28516 22.1081 4.42886 22.8887C4.6526 24.0244 5.56293 25.0662 6.97799 25.806C8.3515 26.5747 10.126 27.0146 11.9802 27.0462C14.9195 31.2172 21.6352 33.7759 29.5097 33.9199C37.9565 34.0744 45.0471 31.6338 48.018 27.2495ZM49.7518 22.3134C50.4754 22.8893 50.8477 23.6037 50.8036 24.3317C50.7276 25.4673 50.3425 26.5869 49.6645 27.6437L49.6485 27.6685C48.1157 29.9414 45.4397 31.8506 42.0145 33.1148C38.4496 34.3934 34.3878 35.0502 30.2641 35.0148H30.2632C29.9963 35.0148 29.7253 35.0122 29.4573 35.0073C25.3874 34.9549 21.4144 34.2317 17.9507 32.9128C14.9018 31.7346 12.4345 30.0639 10.8166 28.082C8.95266 27.9035 7.2125 27.3958 5.80652 26.6203C4.05845 25.6994 2.93865 24.4054 2.67111 22.9973C2.55188 22.3131 2.6162 21.6214 2.86149 20.9501L2.09517 20.5505C1.47488 20.2202 0.970798 19.815 0.613945 19.36C0.257092 18.905 0.0550201 18.4098 0.0201672 17.9048C-0.0427075 16.8566 0.25106 15.8119 0.882557 14.838C2.45564 12.1895 6.07445 9.03589 10.5636 6.40181C12.5668 5.20304 14.7891 4.15179 17.1856 3.26918C19.1845 2.48078 21.4802 2.0248 23.8495 1.94558C25.3776 1.92101 26.866 2.24752 28.0256 2.86172C28.0918 2.89733 29.0838 3.49565 29.8363 3.9502C30.0251 3.90106 30.161 3.86572 30.1649 3.86479C32.391 3.26684 34.7834 2.93945 37.2106 2.90057C41.7081 2.90057 44.6177 4.38784 44.6234 6.6896C44.627 8.10986 43.4962 9.70202 41.4115 11.2433C41.9787 11.7841 42.4078 12.3754 42.6837 12.9966C42.9798 13.6324 43.142 14.2892 43.1662 14.9506C43.1864 15.2351 43.2071 15.6917 43.2238 16.0947C44.7618 16.3347 46.183 16.8002 47.3669 17.4515C48.1695 17.9425 48.6958 18.5792 48.8688 19.2682C49.0426 19.9483 48.8722 20.6449 48.3808 21.2631C48.4245 21.3405 48.47 21.4246 48.5153 21.5137C48.5546 21.5914 48.5918 21.6662 48.6265 21.7373C49.0594 21.8818 49.4418 22.0776 49.7518 22.3134H49.7518Z" fill="white"/>
<path d="M44.3973 20.9667C44.6838 20.8007 44.9072 20.5977 45.0516 20.3722C45.196 20.1467 45.2578 19.9044 45.2326 19.6624C45.1753 19.4186 44.9908 19.1929 44.707 19.0194C43.8744 18.5932 42.8837 18.3007 41.8233 18.1679C41.3389 18.0831 41.0103 18.0288 40.6562 17.9562C40.0266 17.827 39.7155 17.7229 39.645 16.9848C39.6142 16.662 39.5239 15.5375 39.4914 15.0728C39.434 14.2585 39.2767 13.1455 38.1692 12.686C37.8875 12.5708 37.5599 12.5055 37.2221 12.4973C37.033 12.4901 36.8432 12.5017 36.6601 12.5316C36.0979 12.6126 35.5863 12.7929 35.1878 13.0504C34.6719 13.3409 34.0636 13.5621 33.4016 13.6999C32.7397 13.8377 32.0384 13.8891 31.3425 13.8508C30.5673 13.8305 29.7459 13.7553 28.8042 13.7205C28.6209 13.7138 28.4372 13.7068 28.2537 13.7008C27.0369 13.7229 25.8736 14.0141 24.9758 14.5211C24.0781 15.0281 23.5059 15.7173 23.3634 16.4628C22.8243 18.7753 25.5103 19.9703 26.2857 20.6716C26.4056 20.7611 26.4799 20.8704 26.4991 20.9859C26.479 21.114 26.3803 21.2325 26.2231 21.3172L26.2233 21.3178C25.1495 22.0633 24.3956 22.9627 24.0305 23.934C23.6653 24.9053 23.7005 25.9176 24.1329 26.8783C24.2354 27.1091 24.3668 27.3346 24.5259 27.5528C26.4858 30.4083 32.5659 31.7381 38.5059 30.5287C39.284 30.3702 40.0389 30.1713 40.7625 29.9342C42.0649 29.5328 43.2363 28.987 44.2183 28.3241C45.7504 27.3659 46.7566 26.1355 47.0954 24.8061C47.2744 24.0702 47.0123 23.7854 46.6556 23.6484C46.4037 23.561 46.1118 23.5278 45.8258 23.554C45.6747 22.9762 45.4093 22.4121 45.0356 21.8742L44.3973 20.9667Z" fill="white"/>
<path d="M34.6628 9.93811C34.7586 9.95167 34.8195 9.84958 34.7338 9.81993C33.3147 9.36645 31.7495 9.11386 30.1521 9.08055C30.1368 9.08041 30.1218 9.07765 30.1088 9.07258C30.0958 9.06751 30.0854 9.06033 30.0786 9.05183C30.0718 9.04333 30.069 9.03384 30.0704 9.02441C30.0718 9.01498 30.0774 9.00597 30.0866 8.99839C30.3349 8.79825 30.6248 8.61911 30.9488 8.46559C30.9633 8.45864 30.9738 8.44901 30.9789 8.43811C30.9839 8.42721 30.9831 8.41561 30.9766 8.405C30.9701 8.3944 30.9583 8.38534 30.9429 8.37917C30.9275 8.373 30.9093 8.37003 30.891 8.37069C28.9351 8.48916 27.0549 8.89793 25.4109 9.56206C25.3969 9.5679 25.3804 9.571 25.3635 9.57098C25.3466 9.57095 25.3301 9.56779 25.3161 9.56192C25.3021 9.55604 25.2913 9.54772 25.2851 9.53802C25.2789 9.52832 25.2776 9.51769 25.2812 9.50751C25.4137 9.20299 25.6086 8.91014 25.8612 8.63603C25.8695 8.62662 25.8727 8.61581 25.8703 8.60519C25.8679 8.59458 25.8601 8.58471 25.8479 8.57706C25.8357 8.5694 25.8199 8.56435 25.8027 8.56266C25.7856 8.56097 25.768 8.56273 25.7526 8.56766C23.3787 9.37169 21.2629 10.4364 19.5095 11.7092C19.4958 11.7189 19.4883 11.7314 19.4885 11.7442C19.4888 11.7571 19.4966 11.7694 19.5107 11.779C19.5247 11.7885 19.5439 11.7945 19.5646 11.7958C19.5854 11.7972 19.6062 11.7938 19.6231 11.7863C21.6551 10.9106 23.9443 10.2875 26.3628 9.95177C29.0928 9.56343 31.9294 9.55876 34.6628 9.93809" fill="white"/>
<path d="M27.6712 5.80756C27.6712 5.80756 25.6147 4.33938 24.994 4.23109C21.1747 3.59554 12.9245 7.0992 7.65682 11.7282C5.52537 13.6011 2.47416 16.9178 3.93316 18.6238C4.45174 19.0068 5.03632 19.3538 5.67661 19.6589C6.65416 18.8139 8.12539 18.2359 9.78035 18.0467C11.8573 14.4659 15.5033 11.3102 20.3131 8.93018C22.6212 7.76531 25.0824 6.72084 27.6712 5.80756Z" fill="white"/>
<path d="M14.2039 23.8065C14.2335 23.8286 14.2516 23.8557 14.2557 23.8843C14.2598 23.9129 14.2499 23.9416 14.2271 23.9666C14.1162 24.0775 13.9573 24.1672 13.7682 24.2254C13.5792 24.2836 13.3675 24.3081 13.1571 24.2962C12.782 24.2712 12.4363 24.1595 12.1898 23.9834C11.9433 23.8074 11.8144 23.5802 11.8291 23.3477C11.8227 23.031 11.9165 22.7165 12.1052 22.4219C12.2243 22.2372 12.2367 22.033 12.1404 21.8434C12.044 21.6538 11.8448 21.4904 11.5762 21.3807C11.4172 21.3158 11.2387 21.2712 11.0513 21.2496C10.864 21.228 10.6714 21.2297 10.4852 21.2547C10.3027 21.2784 10.1297 21.3243 9.9764 21.3898C9.82311 21.4553 9.69261 21.5391 9.59258 21.6362C9.45109 21.7855 9.34107 21.9455 9.2652 22.112C9.25056 22.1413 9.23875 22.1644 9.2298 22.1792C9.10549 22.386 8.90731 22.4463 8.77303 22.4352C8.70955 22.4298 8.62226 22.4036 8.56631 22.309C8.49608 22.0354 8.52795 21.7555 8.65949 21.4907C8.79104 21.2258 9.01879 20.9829 9.32543 20.7805C9.58296 20.61 9.90262 20.4797 10.258 20.4005C10.6133 20.3212 10.9942 20.2953 11.369 20.3248C11.7661 20.3585 12.1435 20.4523 12.4673 20.598C12.7911 20.7436 13.0513 20.9366 13.2246 21.1594C13.4001 21.4334 13.4709 21.7286 13.4315 22.0221C13.3922 22.3157 13.2438 22.5997 12.9977 22.8521C12.9666 22.895 12.9381 22.9344 12.9141 22.9701C12.8256 23.0687 12.7771 23.179 12.7725 23.2916C12.7679 23.4043 12.8075 23.516 12.8879 23.6172C12.9558 23.6775 13.047 23.7265 13.1532 23.7598C13.2594 23.7931 13.3773 23.8097 13.4964 23.808C13.6087 23.807 13.7203 23.7973 13.8287 23.779C13.9697 23.7586 14.1154 23.7377 14.2039 23.8065M48.9611 24.3416C48.8823 25.3396 48.5403 26.3231 47.9487 27.2534C44.997 31.6283 37.9529 34.0639 29.5615 33.9097C21.7387 33.766 15.0668 31.2126 12.1467 27.0504C10.3032 27.0186 8.53969 26.5794 7.17748 25.8128C5.77029 25.073 4.86618 24.0337 4.64495 22.9016C4.50216 22.1228 4.65837 21.3341 5.10095 20.5993L3.46102 19.74C-4.0427 15.821 19.4269 -0.315006 26.9335 3.73486C26.9714 3.75525 29.487 5.28208 29.4933 5.28584C29.5033 5.28269 30.8813 4.92125 30.8883 4.91949C37.4722 3.2331 42.8147 4.04735 42.8214 6.73804C42.8249 8.13737 41.3834 9.76839 39.0742 11.2489C39.9971 11.8281 40.6505 12.5497 40.966 13.338C41.2206 13.888 41.3582 14.4561 41.3754 15.0279C41.4155 15.5982 41.4599 16.9266 41.4643 16.9503C41.5229 16.9612 42.1895 17.0744 42.3915 17.1095C43.7348 17.2912 44.9848 17.6741 46.0311 18.2245C46.5834 18.5575 46.9451 18.9923 47.0616 19.4631C47.204 20.0741 46.9567 20.6953 46.3719 21.1962C46.524 21.4103 46.6561 21.6295 46.7674 21.8529C46.9617 22.2383 47.1031 22.5581 47.1249 22.6055C47.8392 22.6055 48.9611 23.1142 48.9611 24.3416L48.9611 24.3416ZM15.8002 21.9409C15.29 19.8979 13.0557 19.178 11.5397 19.1266C11.1592 19.1141 10.7776 19.1309 10.4038 19.1766C7.69794 19.5142 6.16973 20.938 6.47044 22.788C6.68944 23.6178 7.35581 24.3778 8.36184 24.9453C9.36787 25.5127 10.6548 25.8544 12.0146 25.9151C12.2748 25.9194 12.5351 25.9081 12.7918 25.8814C15.5343 25.592 16.2523 23.7501 15.8002 21.9409ZM20.4252 8.97238C22.7173 7.81035 25.1623 6.76806 27.7349 5.85632C27.7349 5.85632 25.6922 4.39128 25.0753 4.28332C21.2811 3.6489 13.0848 7.14527 7.85176 11.7645C5.73431 13.6335 2.70312 16.9434 4.15239 18.6456C4.66725 19.0277 5.24803 19.374 5.88447 19.6786C6.8534 18.8364 8.3154 18.2595 9.96147 18.0698C12.0208 14.4999 15.6424 11.3512 20.4252 8.97238ZM28.6715 25.139C28.7721 25.4105 28.9897 25.6602 29.3014 25.8617C29.6131 26.0633 30.0072 26.2092 30.4423 26.284C30.8948 26.388 31.3617 26.4664 31.8373 26.5183C37.839 27.1569 43.4499 25.0343 44.7133 24.4997C44.8081 24.4595 44.8708 24.4987 44.7947 24.5695C44.7566 24.6072 44.7153 24.6436 44.671 24.6786C43.1248 25.9122 38.9683 27.3407 33.5604 27.3402C31.2019 27.34 28.8446 26.826 27.979 26.0363C26.6362 24.8109 27.9125 23.0223 30.15 23.2087C30.1527 23.2089 30.9157 23.2624 31.1301 23.2771C34.6083 23.4834 38.1142 23.1364 41.313 22.2692C44.3657 21.3927 45.519 20.428 45.346 19.6471C45.2881 19.4046 45.1033 19.1804 44.8196 19.0087C43.9848 18.585 42.9935 18.2945 41.9335 18.1631C41.4486 18.0789 41.1196 18.0252 40.7652 17.953C40.1351 17.8246 39.8236 17.7213 39.7529 16.9883C39.7222 16.6678 39.6319 15.5511 39.5991 15.0896C39.5416 14.281 39.3845 13.1758 38.2756 12.7195C37.9933 12.6049 37.6656 12.5401 37.3279 12.5321C37.1385 12.525 36.9486 12.5365 36.7651 12.5662C36.2034 12.6463 35.6915 12.8253 35.2916 13.0814C34.7734 13.3702 34.164 13.5899 33.5017 13.7267C32.8393 13.8634 32.1383 13.9143 31.4425 13.8761C30.6667 13.8561 29.8445 13.7814 28.9021 13.7468C28.7187 13.7401 28.5346 13.7331 28.3509 13.7273C27.1374 13.7469 25.9757 14.0346 25.0773 14.538C24.1789 15.0414 23.6035 15.727 23.4559 16.47C22.9164 18.7664 25.6049 19.9531 26.3811 20.6494C26.5011 20.7381 26.5754 20.8468 26.5948 20.9616C26.5743 21.089 26.4754 21.2067 26.3185 21.2905V21.2912C25.2448 22.0288 24.4903 22.9215 24.1245 23.8867C23.7588 24.8519 23.7938 25.8583 24.2263 26.8129C24.3289 27.0422 24.4604 27.2661 24.6195 27.4827C26.5813 30.3184 32.6671 31.6388 38.6127 30.4377C39.3912 30.2805 40.1469 30.0831 40.8716 29.8477C42.1736 29.4497 43.346 28.9077 44.3307 28.2486C45.8619 27.2996 46.8695 26.0773 47.2105 24.7551C47.3895 24.0242 47.1275 23.7415 46.7702 23.6055C46.5176 23.5187 46.2257 23.4857 45.9397 23.5116C45.7882 22.9376 45.5226 22.3774 45.1488 21.8435C43.4507 22.6336 41.5312 23.2241 39.4862 23.5855C37.0258 24.0142 34.4662 24.1854 31.9139 24.0919C30.272 24.0099 29.1857 23.7134 28.7772 24.5347C31.2609 25.0469 33.8979 25.2128 36.4982 25.0205C36.5165 25.0193 36.5349 25.0204 36.5526 25.0237C36.5702 25.0269 36.5866 25.0323 36.6008 25.0395C36.615 25.0467 36.6268 25.0555 36.6355 25.0655C36.6442 25.0755 36.6496 25.0865 36.6514 25.0978C36.6541 25.1167 36.6473 25.1357 36.6317 25.1522C36.6162 25.1687 36.5928 25.1817 36.5647 25.1896C36.5647 25.1896 33.5149 26.0655 28.6715 25.139ZM19.7397 11.8224C21.7569 10.9491 24.0314 10.3273 26.4353 9.99189C29.1471 9.60435 31.9659 9.59966 34.681 9.97817C34.776 9.99163 34.8367 9.88982 34.7516 9.86039C33.3427 9.40799 31.7873 9.15583 30.1997 9.1224C30.1845 9.12223 30.1695 9.11946 30.1566 9.1144C30.1437 9.10933 30.1333 9.10217 30.1266 9.0937C30.1199 9.08523 30.1171 9.07578 30.1185 9.06639C30.1199 9.057 30.1255 9.04803 30.1346 9.04047C30.3812 8.84086 30.6693 8.66209 30.9914 8.50875C31.0059 8.50181 31.0163 8.4922 31.0213 8.48134C31.0262 8.47047 31.0255 8.45891 31.019 8.44834C31.0126 8.43777 31.0009 8.42873 30.9856 8.42256C30.9702 8.41638 30.9521 8.41338 30.9338 8.41399C28.9897 8.53252 27.1214 8.94053 25.4896 9.60292C25.4756 9.60875 25.4592 9.61185 25.4423 9.61182C25.4255 9.6118 25.4091 9.60865 25.3952 9.60278C25.3813 9.59692 25.3706 9.58861 25.3644 9.57894C25.3583 9.56927 25.357 9.55868 25.3608 9.54856C25.4922 9.24479 25.6857 8.95257 25.9368 8.67894C25.9451 8.66958 25.9483 8.65882 25.946 8.64824C25.9437 8.63766 25.9359 8.62783 25.9238 8.62017C25.9118 8.61252 25.896 8.60747 25.8789 8.60574C25.8619 8.60402 25.8443 8.60572 25.8289 8.6106C23.469 9.41387 21.3671 10.4764 19.6268 11.7458C19.6131 11.7554 19.6057 11.7678 19.6059 11.7806C19.6061 11.7934 19.614 11.8056 19.6279 11.8151C19.6418 11.8246 19.6609 11.8305 19.6815 11.8319C19.7022 11.8332 19.7229 11.8298 19.7397 11.8224ZM35.5446 19.6174C35.7088 19.6815 35.9057 19.7061 36.0974 19.6865C36.2892 19.6668 36.4626 19.6043 36.5844 19.5108C36.7357 19.3302 36.516 19.0851 36.0932 18.9634C35.9289 18.8992 35.7321 18.8747 35.5403 18.8944C35.3485 18.9141 35.1752 18.9767 35.0534 19.0702C34.9018 19.2507 35.1218 19.4958 35.5446 19.6174ZM36.8412 16.6874C36.9426 17.0127 37.1614 17.3198 37.4814 17.5859C37.812 17.5608 38.1464 17.5608 38.477 17.5859C38.6703 17.2288 38.6872 16.8443 38.5256 16.4813C38.2867 15.8115 37.9633 15.4061 37.2951 15.4691C36.6271 15.5322 36.6025 16.0175 36.8412 16.6874ZM38.2627 18.2261C38.0942 18.1963 37.9148 18.1997 37.7496 18.2361C37.5845 18.2724 37.442 18.3397 37.342 18.4285C37.2421 18.5173 37.1899 18.6232 37.1926 18.7313C37.1953 18.8394 37.2529 18.9443 37.3572 19.0311C37.4615 19.118 37.6074 19.1826 37.7742 19.2157C37.9411 19.2488 38.1206 19.2489 38.2876 19.2159C38.4545 19.1828 38.6005 19.1184 38.7049 19.0316C38.8094 18.9448 38.8672 18.84 38.8701 18.7319C38.8943 18.6155 38.8446 18.4979 38.7314 18.4036C38.6182 18.3093 38.4502 18.2457 38.2627 18.2261Z" fill="black"/>
<path d="M27.1694 18.1662C27.0628 18.157 27.0174 18.1288 27.004 18.0916C26.9626 17.976 27.2508 17.7859 27.5546 17.6486C27.998 17.4487 28.5173 17.3225 29.0626 17.2821C29.6079 17.2418 30.1609 17.2886 30.6684 17.4181C31.1426 17.5387 31.5503 17.7411 31.8428 18.001C31.9514 18.1102 31.9724 18.195 31.9022 18.2394C31.7928 18.3105 31.5138 18.229 31.0596 18.1062C30.514 17.9411 29.911 17.861 29.3036 17.8729C28.5838 17.946 27.8713 18.0439 27.1694 18.1662ZM31.6964 18.741C31.5001 18.6137 31.2558 18.5185 30.9852 18.4638C30.7146 18.4091 30.4263 18.3967 30.146 18.4276C29.7326 18.4547 29.341 18.5553 29.0188 18.7173C28.8686 18.7837 28.7654 18.8831 28.7304 18.995C28.7296 19.0075 28.7332 19.0199 28.741 19.0314C28.7488 19.0428 28.7606 19.0531 28.7756 19.0615C28.8022 19.0764 28.837 19.0846 28.873 19.0843C29.0217 19.0709 29.1671 19.046 29.3058 19.0103C29.913 18.8692 30.5691 18.8272 31.2104 18.8883C31.5076 18.9089 31.648 18.9204 31.7132 18.8575C31.7299 18.8393 31.7373 18.8184 31.7343 18.7976C31.7313 18.7768 31.718 18.757 31.6964 18.741Z" fill="black"/>
<path d="M30.8548 18.9089C31.0424 18.4973 31.0531 18.0627 30.886 17.6478C30.6442 16.977 30.2787 16.5936 29.6011 16.6568C28.9236 16.7199 28.906 17.2605 29.1244 17.9342C29.2248 18.2429 29.4204 18.5369 29.7006 18.8001C30.2397 19.2641 30.6053 19.144 30.8538 18.9089L30.8548 18.9089Z" fill="black"/>
<path d="M81.9666 16.8515C78.6941 16.8515 77.0757 18.4366 76.3379 19.464C75.9214 20.0364 75.8024 20.484 75.4692 20.484C74.9932 20.484 75.3383 20.0951 74.9456 19.2218C74.4339 18.077 72.8988 16.8515 69.6263 16.8515C66.1872 16.8515 64.7235 18.6421 64.0214 19.6254C63.5454 20.3005 63.5454 20.484 63.1765 20.484C62.641 20.484 63.0813 19.9483 63.3193 19.3245C63.7953 18.0917 63.4264 17.1451 63.4264 17.1451H58V29.767H65.4375V23.4854C65.4375 22.2452 66.2824 20.6748 67.7223 20.6748C69.3883 20.6748 69.7215 21.46 69.7215 22.9203V29.767H77.1828V23.478C77.1828 22.3773 77.9087 20.6675 79.4795 20.6675C81.1693 20.6675 81.4668 21.7755 81.4668 22.913V29.7597H88.7972V22.3333C88.7972 19.0384 86.917 16.8442 81.9785 16.8442L81.9666 16.8515Z" fill="black"/>
<path d="M208.13 16.8515C204.858 16.8515 203.239 18.4366 202.502 19.464C202.085 20.0364 201.966 20.484 201.633 20.484C201.157 20.484 201.478 19.985 201.109 19.2218C200.562 18.0844 199.205 16.8515 195.79 16.8515C192.375 16.8515 190.887 18.6421 190.185 19.6254C189.709 20.3005 189.709 20.484 189.34 20.484C188.805 20.484 189.245 19.9483 189.483 19.3245C189.959 18.0917 189.59 17.1451 189.59 17.1451H184.14V29.767H191.577V23.4854C191.577 22.2452 192.422 20.6748 193.862 20.6748C195.528 20.6748 195.861 21.46 195.861 22.9203V29.767H203.323V23.478C203.323 22.3773 204.049 20.6675 205.619 20.6675C207.309 20.6675 207.607 21.7755 207.607 22.913V29.7597H214.937V22.3333C214.937 19.0384 213.057 16.8442 208.118 16.8442L208.13 16.8515Z" fill="black"/>
<path d="M101.483 16.8515C95.7826 16.8515 91.7009 18.1431 91.7009 18.1431V21.937C91.7009 21.937 96.211 20.3372 99.8762 20.3372C102.804 20.3372 103.161 21.3059 103.018 22.1131C103.018 22.1131 102.173 21.9737 99.6025 21.9737C93.5454 21.9737 90.4871 23.6688 90.4871 26.3914C90.4871 28.9745 93.9262 30.0532 96.8179 30.0532C101.042 30.0532 102.899 28.2993 103.47 27.4701C103.863 26.8904 103.934 26.5088 104.291 26.5088C104.696 26.5088 104.565 26.7876 104.541 27.36C104.505 28.3654 104.589 29.1212 104.838 29.767H110.443V23.5514C110.443 19.6694 108.218 16.8442 101.471 16.8442L101.483 16.8515ZM99.6739 26.817C97.9008 27.0665 96.9726 26.7289 96.9726 26.0024C96.9726 25.0044 98.6386 24.6081 101.019 24.6081C102.066 24.6081 103.053 24.6669 103.053 24.6669C103.053 25.0925 101.554 26.5455 99.662 26.817H99.6739Z" fill="black"/>
<path d="M130.126 13.3144H122.688V29.767H130.126V13.3144Z" fill="black"/>
<path d="M138.313 23.456C138.313 22.3186 140.027 21.2912 143.168 21.2912C146.596 21.2912 149.344 22.3039 149.963 22.5387V18.1504C149.963 18.1504 147.786 16.8589 142.442 16.8589C136.814 16.8589 132.113 18.8916 132.113 23.2652C132.113 27.6389 136.373 30.0679 142.419 30.0679C147.143 30.0679 149.963 28.4681 149.963 28.4681V24.2999C149.071 24.6081 146.584 25.6722 143.192 25.6722C139.598 25.6722 138.301 24.6522 138.301 23.4707L138.313 23.456Z" fill="black"/>
<path d="M165.005 16.8515C160.697 16.8515 159.067 19.3686 158.733 19.8015C158.4 20.2345 158.246 20.4913 157.972 20.484C157.508 20.4767 157.829 19.9483 158.008 19.6107C158.353 18.965 159.09 17.2772 159.09 15.2004C159.09 13.7914 158.781 13.3218 158.781 13.3218H152.367V29.767H159.804V23.4854C159.804 22.4654 160.471 20.6748 162.339 20.6748C163.886 20.6748 164.374 21.3866 164.374 22.8103V29.767H171.812V23.0818C171.812 19.8382 170.943 16.8442 165.017 16.8442L165.005 16.8515Z" fill="black"/>
<path d="M174.227 17.1597V29.767H181.665V17.1597C181.665 17.1597 180.415 17.6074 177.952 17.6074C175.489 17.6074 174.227 17.1597 174.227 17.1597Z" fill="black"/>
<path d="M177.916 16.8515C180.427 16.8515 182.462 16.0302 182.462 15.0169C182.462 14.0037 180.427 13.1824 177.916 13.1824C175.406 13.1824 173.371 14.0037 173.371 15.0169C173.371 16.0302 175.406 16.8515 177.916 16.8515Z" fill="black"/>
<path d="M112.859 17.1597V29.767H120.296V17.1597C120.296 17.1597 119.047 17.6074 116.584 17.6074C114.12 17.6074 112.859 17.1597 112.859 17.1597Z" fill="black"/>
<path d="M116.548 16.8515C119.059 16.8515 121.094 16.0302 121.094 15.0169C121.094 14.0037 119.059 13.1824 116.548 13.1824C114.037 13.1824 112.002 14.0037 112.002 15.0169C112.002 16.0302 114.037 16.8515 116.548 16.8515Z" fill="black"/>
<path d="M229.717 16.8515C225.897 16.8515 224.148 18.6201 223.386 19.6254C222.886 20.2932 222.91 20.484 222.541 20.484C222.006 20.484 222.446 19.9483 222.684 19.3245C223.16 18.0917 222.791 17.1451 222.791 17.1451H217.341V33.26H224.779V28.1526C225.659 29.0698 227.289 30.0532 229.8 30.0532C235.179 30.0532 237.88 27.2499 237.88 23.456C237.88 19.1631 234.644 16.8515 229.705 16.8515H229.717ZM227.682 27.0591C225.98 27.0591 224.719 25.7236 224.719 23.867C224.719 22.0104 226.004 20.6748 227.623 20.6748C229.693 20.6748 230.574 21.8416 230.574 23.867C230.574 25.8924 229.765 27.0591 227.682 27.0591Z" fill="black"/>
<path d="M84.656 10.6433C84.656 12.2651 86.7623 13.4539 89.4398 13.4539C92.1173 13.4539 94.2236 12.2724 94.2236 10.6433V6.91542H91.6294V10.4525C91.6294 11.3258 90.6774 11.9128 89.4279 11.9128C88.1784 11.9128 87.2264 11.3258 87.2264 10.4525V6.91542H84.6322V10.6433H84.656Z" fill="black"/>
<path d="M101.161 8.4051H104.255V13.3144H106.85V8.4051H109.944V6.90808H101.161V8.4051Z" fill="black"/>
<path d="M99.4834 6.90808H96.8892V13.3144H99.4834V6.90808Z" fill="black"/>
<path d="M74.184 8.4051H77.278V13.3144H79.8722V8.4051H82.9662V6.90808H74.184V8.4051Z" fill="black"/>
<path d="M60.5942 6.90808H58V13.3144H60.5942V6.90808Z" fill="black"/>
<path d="M72.8274 9.59391C72.8274 7.97214 70.7211 6.78333 68.0317 6.78333C65.3423 6.78333 63.2479 7.9648 63.2479 9.59391V13.3218H65.8421V9.78471C65.8421 8.91145 66.7941 8.32438 68.0436 8.32438C69.2931 8.32438 70.2451 8.91145 70.2451 9.78471V13.3218H72.8393V9.59391H72.8274Z" fill="black"/>
</svg>
