<svg width="37" height="28" viewBox="0 0 37 28" fill="none" xmlns="http://www.w3.org/2000/svg">
<path d="M12.9466 23.3925C11.9354 22.9632 10.6138 22.0045 8.48865 20.969C7.37354 20.3628 4.5499 19.4283 3.53863 18.999C2.7264 18.4774 2.51994 18.1249 2.30359 17.3265C1.87955 16.1757 2.55208 14.7405 3.94289 14.0959C4.93561 13.6358 6.34496 13.8806 7.45019 14.041C8.05472 14.2101 9.06599 14.6394 9.67053 14.8086C10.2751 14.9777 10.3789 15.1523 10.9834 15.3214C11.6918 15.6662 12.0973 15.9275 11.4841 15.3137C10.7671 14.5241 9.73852 13.2053 8.51214 11.9776C7.69126 11.0113 7.38837 10.9267 6.77518 10.3129C6.05815 9.52331 5.54757 9.08516 4.83053 8.29561C4.32119 7.85856 3.29261 6.53972 2.67942 5.92588C1.96238 5.13633 1.029 3.54735 1.40853 2.47339C1.69287 1.66738 2.78203 0.938225 3.78341 0.922852C5.08767 0.992033 6.41048 1.95069 6.91983 2.38774C7.8359 3.08505 8.95844 4.13704 9.98701 5.45588C11.4211 7.03607 13.5722 9.40581 13.8837 9.9351C13.4684 9.22901 12.5449 8.08697 12.3285 7.28864C12.216 6.66711 12.1975 5.77653 12.8885 5.23187C13.3806 4.77944 13.9765 4.50381 14.5723 4.22709C15.2721 4.12716 16.0756 4.20293 16.6802 4.37204C18.0969 5.06166 19.4457 7.35672 19.3419 7.17993C19.1255 6.3816 18.296 4.96942 18.2787 4.07994C18.27 3.6352 18.8573 2.91484 19.1502 2.55356C19.6423 2.10113 20.436 1.73216 21.1357 1.63224C21.5325 1.44775 22.6402 1.60918 23.0457 1.86943C23.7541 2.21424 24.9892 3.88667 25.6023 4.50052C25.7062 4.67732 25.386 3.70219 25.4725 2.98841C25.6444 1.56196 28.2183 -0.07973 29.8687 2.29769L32.2547 6.35524C32.6689 7.06133 33.4032 8.74035 33.6196 9.53868C33.7321 10.1602 33.8619 11.6723 33.6814 12.654C33.6814 12.654 32.7406 15.7837 33.1646 16.9345C33.5887 18.0853 33.5874 18.0853 34.0028 18.7914C34.417 19.4975 35.1352 20.2871 35.1352 20.2871C35.1352 20.2871 33.6505 21.2007 32.7517 21.3929C31.8529 21.585 30.1333 20.8098 29.6239 20.3727C28.9155 20.0279 28.3209 20.3046 28.2344 21.0184C28.2517 21.9079 27.9846 23.6034 27.1897 23.9723C25.9028 24.7937 23.0185 25.9061 21.0319 26.8274C21.0319 26.8274 20.3915 24.8783 19.1824 24.5412L15.8568 23.6144L12.9466 23.3925Z" fill="white"/>
<path d="M12.9466 23.3925C11.9354 22.9632 10.6138 22.0045 8.48865 20.969C7.37354 20.3628 4.5499 19.4283 3.53863 18.999C2.7264 18.4774 2.51994 18.1249 2.30359 17.3265C1.87955 16.1757 2.55208 14.7405 3.94289 14.0959C4.93561 13.6358 6.34496 13.8806 7.45019 14.041C8.05472 14.2101 9.06599 14.6394 9.67053 14.8086C10.2751 14.9777 10.3789 15.1523 10.9834 15.3214C11.6918 15.6662 12.0973 15.9275 11.4841 15.3137C10.7671 14.5241 9.73852 13.2053 8.51214 11.9776C7.69126 11.0113 7.38837 10.9267 6.77518 10.3129C6.05815 9.52331 5.54757 9.08516 4.83053 8.29561C4.32119 7.85856 3.29261 6.53972 2.67942 5.92588C1.96238 5.13633 1.029 3.54735 1.40853 2.47339C1.69287 1.66738 2.78203 0.938225 3.78341 0.922852C5.08767 0.992033 6.41048 1.95069 6.91983 2.38774C7.8359 3.08505 8.95844 4.13704 9.98701 5.45588C11.4211 7.03607 13.5722 9.40581 13.8837 9.9351C13.4684 9.22901 12.5449 8.08697 12.3285 7.28864C12.216 6.66711 12.1975 5.77653 12.8885 5.23187C13.3806 4.77944 13.9765 4.50381 14.5723 4.22709C15.2721 4.12716 16.0756 4.20293 16.6802 4.37204C18.0969 5.06166 19.4457 7.35672 19.3419 7.17993C19.1255 6.38159 18.296 4.96942 18.2787 4.07994C18.27 3.6352 18.8573 2.91484 19.1502 2.55356C19.6423 2.10113 20.436 1.73216 21.1357 1.63224C21.5325 1.44775 22.6402 1.60918 23.0457 1.86943C23.7541 2.21424 24.9892 3.88667 25.6023 4.50052C25.7062 4.67732 25.386 3.70219 25.4725 2.98841C25.6444 1.56196 28.2183 -0.07973 29.8687 2.29769L32.2547 6.35524C32.6689 7.06133 33.4032 8.74035 33.6196 9.53868C33.7321 10.1602 33.8619 11.6723 33.6814 12.654C33.6814 12.654 32.7406 15.7837 33.1646 16.9345C33.5887 18.0853 33.5874 18.0853 34.0028 18.7914C34.417 19.4975 35.1352 20.2871 35.1352 20.2871C35.1352 20.2871 33.6505 21.2007 32.7517 21.3929C31.8529 21.585 30.1333 20.8098 29.6239 20.3727C28.9155 20.0279 28.3209 20.3046 28.2344 21.0184C28.2517 21.9079 27.9846 23.6034 27.1897 23.9723C25.9028 24.7937 23.0185 25.9061 21.0319 26.8274C21.0319 26.8274 20.3915 24.8783 19.1824 24.5412L15.8568 23.6144L12.9466 23.3925Z" stroke="black" stroke-width="1.82032" stroke-linecap="round" stroke-linejoin="round"/>
<path d="M18.2726 13.9619L21.7984 19.9609M29.7439 16.2756L26.2181 10.2766L29.7439 16.2756ZM25.7718 18.1183L22.0469 12.2115L25.7718 18.1183Z" stroke="black" stroke-width="1.82032" stroke-linecap="round"/>
</svg>
